<svg id="Ebene_1" data-name="Ebene 1" xmlns="http://www.w3.org/2000/svg" viewBox="0 0 149.2 166.26"><defs><style>.cls-1{fill:#41acd2;}.cls-2{fill:#424d52;}</style></defs><title>Unbenannt-45</title><path class="cls-1" d="M309.48,87.35H295.84c-2.91,0-4-.06-4.16,3s-2.82,5-6.38,6a15.8,15.8,0,0,1-3.84.13H218.54a15.68,15.68,0,0,1-3.83-.21c-3.57-.92-6.2-2.64-6.38-5.79s-1.25-3.06-4.16-3.06H190.4c-8.35,0-14.78,5.69-14.78,12.56V233a182.64,182.64,0,0,0,149.2,0V99.91C324.82,93,317.83,87.35,309.48,87.35Z" transform="translate(-175.62 -87.35)"/><path class="cls-2" d="M175.62,235.74v1.94a182.64,182.64,0,0,0,149.2,0v-1.94a182.64,182.64,0,0,1-149.2,0Z" transform="translate(-175.62 -87.35)"/><rect class="cls-1" width="149.2" height="31.06"/></svg>