<svg id="Ebene_1" data-name="Ebene 1" xmlns="http://www.w3.org/2000/svg" viewBox="0 0 149.2 166.26"><defs><style>.cls-1{fill:#41acd2;}.cls-2{fill:#50707c;}.cls-3{font-size:20.03px;font-family:Montserrat-Medium, Montserrat Medium;font-weight:500;}.cls-10,.cls-3{fill:#fff;}.cls-4{letter-spacing:-0.03em;}.cls-5{letter-spacing:0em;}.cls-6{fill:none;stroke:#42717c;stroke-linecap:round;stroke-linejoin:round;}.cls-7,.cls-9{fill:#41707c;}.cls-7{fill-rule:evenodd;}.cls-8{fill:#424d52;}</style></defs><title>background last edi</title><path class="cls-1" d="M284.94,103.39H271.3c-2.91,0-4-.06-4.16,3s-2.82,5-6.38,6a15.8,15.8,0,0,1-3.84.13H194a15.2,15.2,0,0,1-3.83-.21c-3.57-.91-6.2-2.63-6.38-5.79s-1.25-3-4.16-3H165.86c-8.35,0-14.78,5.68-14.78,12.56V249a182.75,182.75,0,0,0,149.2,0V116C300.28,109.07,293.29,103.39,284.94,103.39Z" transform="translate(-151.08 -103.39)"/><path class="cls-2" d="M151.08,251.77v1.94a182.64,182.64,0,0,0,149.2,0v-1.94a182.64,182.64,0,0,1-149.2,0Z" transform="translate(-151.08 -103.39)"/><text class="cls-3" transform="translate(20.81 87.66)">Islam-<tspan class="cls-4" x="49.96" y="0">F</tspan><tspan class="cls-5" x="59.2" y="0">r</tspan><tspan x="65.65" y="0">agen</tspan></text><line class="cls-6" x1="61.4" y1="96.14" x2="87.85" y2="96.14"/><polygon class="cls-7" points="74.19 28.24 68.85 33.56 61.59 33.6 61.63 40.81 55.72 46.28 61.77 48.86 59.25 46.01 63.94 41.63 63.96 35.7 70.04 35.95 74.19 31.89 78.34 35.95 84.42 35.7 84.44 41.63 89.13 46.01 86.61 48.86 92.66 46.28 86.75 40.81 86.79 33.6 79.53 33.56 74.19 28.24 74.19 28.24"/><path class="cls-8" d="M257.38,156.7c-11.73-.34-21.44,1.08-32,6.26-10.59-5.18-20.3-6.6-32-6.26-1.72,3.87-3,6.59-3.07,6.82A58.23,58.23,0,0,1,217.92,162a9.86,9.86,0,0,1,4.57,2.32c0,.12.09.24.14.36s.11.28.16.43a1,1,0,0,0,.3.38.74.74,0,0,0,.4.15h3.7a.74.74,0,0,0,.41-.15,1.07,1.07,0,0,0,.29-.38c.06-.15.11-.29.17-.43l.14-.36h0a9.87,9.87,0,0,1,4.56-2.32,58.22,58.22,0,0,1,27.68,1.56C260.41,163.29,259.09,160.57,257.38,156.7Z" transform="translate(-151.08 -103.39)"/><path class="cls-7" d="M227.94,160.91a52.8,52.8,0,0,1,23.47-11.2l1.76,2.13q-10.32,1.51-15.33,4A61.19,61.19,0,0,1,254,153l1.34,1.66c-10.23.57-21.12,2.65-27.43,6.3Zm-5.34,0a52.75,52.75,0,0,0-23.47-11.2l-1.76,2.13q10.32,1.51,15.33,4A61.12,61.12,0,0,0,196.51,153l-1.34,1.66c10.23.57,21.12,2.65,27.43,6.3Z" transform="translate(-151.08 -103.39)"/><path class="cls-9" d="M223.81,156.07l.5,0,1,2.07,1.27-2.59c5.31-2,6.71-8.54,4-11-3.09-2.83-9.27-2-11.94,2.34C216.81,149.9,216.24,156.4,223.81,156.07Z" transform="translate(-151.08 -103.39)"/><path class="cls-10" d="M224.16,150.4a5,5,0,0,1,.83-.87,4.79,4.79,0,0,0,.65-.69.94.94,0,0,0,.14-.69.84.84,0,0,0-.37-.61,1.5,1.5,0,0,0-.86-.22,2.06,2.06,0,0,0-1,.23,1.85,1.85,0,0,0-.7.69l-1.34-.94a2.85,2.85,0,0,1,1.24-1.16,4.19,4.19,0,0,1,1.93-.42,3.46,3.46,0,0,1,2,.55,2.24,2.24,0,0,1,.87,2.49,1.87,1.87,0,0,1-.4.69,8.3,8.3,0,0,1-.66.64,5.58,5.58,0,0,0-.69.68,1.12,1.12,0,0,0-.25.67h-1.74A1.86,1.86,0,0,1,224.16,150.4Z" transform="translate(-151.08 -103.39)"/><ellipse class="cls-10" cx="73.62" cy="49.55" rx="0.97" ry="0.95"/><rect class="cls-1" width="149.2" height="14.91"/></svg>