<svg id="Ebene_1" data-name="Ebene 1" xmlns="http://www.w3.org/2000/svg" viewBox="0 0 149.2 202.15"><defs><style>.cls-1{fill:#41acd2;}.cls-2{fill:#77cbec;}.cls-3{font-size:13.11px;font-family:Montserrat-Regular, Montserrat Regular;}.cls-3,.cls-5,.cls-6{fill:#fff;}.cls-4{letter-spacing:-0.02em;}.cls-6{font-size:20.03px;font-family:Montserrat-Medium, Montserrat Medium;font-weight:500;}.cls-7{letter-spacing:-0.03em;}.cls-8{letter-spacing:0em;}.cls-10,.cls-9{fill:none;stroke:#fff;}.cls-9{stroke-linecap:round;stroke-linejoin:round;}.cls-10{stroke-miterlimit:10;}</style></defs><title>background 2</title><path class="cls-1" d="M306.41,85.77H292.77c-2.91,0-4-.07-4.16,3.62s-2.81,6.1-6.38,7.22a13.2,13.2,0,0,1-3.83.16H215.48a12.91,12.91,0,0,1-3.84-.26c-3.56-1.11-6.19-3.2-6.37-7s-1.26-3.71-4.17-3.71H187.34A15,15,0,0,0,172.56,101V262.58a153.55,153.55,0,0,0,149.2,0V101A15.43,15.43,0,0,0,306.41,85.77Z" transform="translate(-172.56 -85.48)"/><path class="cls-2" d="M172.56,265.93v2.36a153.55,153.55,0,0,0,149.2,0v-2.36a153.55,153.55,0,0,1-149.2,0Z" transform="translate(-172.56 -85.48)"/><text class="cls-3" transform="translate(30.08 38.46)"><tspan class="cls-4">W</tspan><tspan x="10.88" y="0">illkommen bei</tspan></text><path class="cls-5" d="M221.78,205.47h2.74V206h-2.16v1.26h2v.54h-2v1.36h2.27v.54h-2.85Z" transform="translate(-172.56 -85.48)"/><path class="cls-5" d="M226.23,205.45a.4.4,0,1,1-.39.4A.4.4,0,0,1,226.23,205.45Zm-.27,1.42h.54v2.84H226Z" transform="translate(-172.56 -85.48)"/><path class="cls-5" d="M228,206.87h.54v.44h0a1,1,0,0,1,.94-.51,1,1,0,0,1,1,1.08v1.83H230V208c0-.53-.3-.73-.65-.73s-.79.29-.79.95v1.46H228Z" transform="translate(-172.56 -85.48)"/><path class="cls-5" d="M234.34,205.47h1.49c1.09,0,1.36.65,1.36,1.18s-.27,1.19-1.36,1.19h-.92v1.87h-.57Zm.57,1.87h.76c.46,0,.91-.11.91-.69s-.45-.68-.91-.68h-.76Z" transform="translate(-172.56 -85.48)"/><path class="cls-5" d="M238.37,206.87h.54v.44h0a1,1,0,0,1,.85-.51.88.88,0,0,1,.24,0l0,.58a1.26,1.26,0,0,0-.27,0c-.52,0-.81.29-.81.91v1.43h-.54Z" transform="translate(-172.56 -85.48)"/><path class="cls-5" d="M242.47,206.8a1.49,1.49,0,1,1-1.51,1.49A1.49,1.49,0,0,1,242.47,206.8Zm0,2.48a1,1,0,1,0-.94-1A.91.91,0,0,0,242.47,209.28Z" transform="translate(-172.56 -85.48)"/><path class="cls-5" d="M245.85,206.87v3.25c0,.29,0,1-.87,1a1.06,1.06,0,0,1-.35-.05l.06-.5a.86.86,0,0,0,.23.05c.29,0,.39-.19.39-.55v-3.23Zm-.27-1.42a.4.4,0,1,1-.39.4A.4.4,0,0,1,245.58,205.45Z" transform="translate(-172.56 -85.48)"/><path class="cls-5" d="M247.73,208.49a.89.89,0,0,0,1,.83,1,1,0,0,0,.78-.43l.41.31a1.49,1.49,0,0,1-1.26.58,1.41,1.41,0,0,1-1.47-1.49,1.44,1.44,0,0,1,1.47-1.49,1.35,1.35,0,0,1,1.39,1.5v.19Zm1.7-.43a.76.76,0,0,0-.82-.83.88.88,0,0,0-.88.83Z" transform="translate(-172.56 -85.48)"/><path class="cls-5" d="M251.27,205.18h.54v2.92l1.22-1.22h.75l-1.32,1.28,1.44,1.55h-.77l-1.32-1.47v1.47h-.54Z" transform="translate(-172.56 -85.48)"/><path class="cls-5" d="M256.52,207.34h-.77v1.29c0,.31,0,.65.4.65a.85.85,0,0,0,.39-.08v.49a1.28,1.28,0,0,1-.49.09c-.83,0-.84-.51-.84-1v-1.48h-.63v-.47h.63v-.8h.54v.8h.77Z" transform="translate(-172.56 -85.48)"/><path class="cls-5" d="M259.77,206.87h.62l.85,2.18.82-2.18h.57l-1.11,2.84h-.6Z" transform="translate(-172.56 -85.48)"/><path class="cls-5" d="M265.09,206.8a1.49,1.49,0,1,1-1.51,1.49A1.49,1.49,0,0,1,265.09,206.8Zm0,2.48a1,1,0,1,0-.93-1A.91.91,0,0,0,265.09,209.28Z" transform="translate(-172.56 -85.48)"/><path class="cls-5" d="M267.9,206.87h.54v.44h0a1,1,0,0,1,.93-.51,1,1,0,0,1,1,1.08v1.83h-.54V208c0-.53-.31-.73-.65-.73s-.79.29-.79.95v1.46h-.54Z" transform="translate(-172.56 -85.48)"/><path class="cls-5" d="M194.38,213.15h1.85c.87,0,1.82.18,1.82,1.26a1.13,1.13,0,0,1-.86,1.1h0a1.19,1.19,0,0,1,1.09,1.21c0,1-1,1.38-1.87,1.38h-2Zm1.1,2h.79c.33,0,.68-.14.68-.53s-.39-.52-.73-.52h-.74Zm0,2.06h1c.34,0,.72-.15.72-.58s-.52-.55-.88-.55h-.82Z" transform="translate(-172.56 -85.48)"/><path class="cls-5" d="M202.78,218.11h-1v-.46h0a1.08,1.08,0,0,1-1,.55c-1.06,0-1.26-.7-1.26-1.62v-1.87h1.05v1.66c0,.4,0,.9.55.9s.63-.43.63-.87v-1.69h1.05Z" transform="translate(-172.56 -85.48)"/><path class="cls-5" d="M204.34,214.79H205v.51h0a1.16,1.16,0,0,1,1.09-.59,1.14,1.14,0,0,1,1.21,1.27v2.13h-.63v-2c0-.62-.36-.85-.76-.85s-.92.33-.92,1.1v1.71h-.63Z" transform="translate(-172.56 -85.48)"/><path class="cls-5" d="M212.27,218.11h-.63v-.47h0a1.45,1.45,0,0,1-1.16.56,1.75,1.75,0,0,1,0-3.49,1.38,1.38,0,0,1,1.16.56h0v-2.45h.63Zm-.63-1.66a1.1,1.1,0,1,0-2.19,0,1.1,1.1,0,1,0,2.19,0Z" transform="translate(-172.56 -85.48)"/><path class="cls-5" d="M216.85,215.55h-.69v-.84h.69v-.61c0-.74.19-1.37,1.33-1.37a2.56,2.56,0,0,1,.62.07l-.05.89a.84.84,0,0,0-.34-.08c-.34,0-.51.11-.51.56v.54h.78v.84h-.78v2.56h-1.05Z" transform="translate(-172.56 -85.48)"/><path class="cls-5" d="M222.84,218.11h-.63v-.51h0a1.2,1.2,0,0,1-1.1.6,1.15,1.15,0,0,1-1.2-1.27v-2.14h.63v2c0,.63.36.86.76.86s.92-.34.92-1.11v-1.71h.63Zm-1.75-4.6a.44.44,0,1,1-.44-.4A.43.43,0,0,1,221.09,213.51Zm1.43,0a.44.44,0,1,1-.44-.4A.43.43,0,0,1,222.52,213.51Z" transform="translate(-172.56 -85.48)"/><path class="cls-5" d="M224.5,214.79h.63v.51h0a1.11,1.11,0,0,1,1-.59.82.82,0,0,1,.28,0l0,.68a1.11,1.11,0,0,0-.3-.05c-.62,0-1,.34-1,1.06v1.67h-.63Z" transform="translate(-172.56 -85.48)"/><path class="cls-5" d="M230.9,213a.61.61,0,0,1,.61.61.61.61,0,0,1-.61.61.62.62,0,0,1-.61-.61A.61.61,0,0,1,230.9,213Zm-.52,1.68h1.05v3.4h-1.05Z" transform="translate(-172.56 -85.48)"/><path class="cls-5" d="M234.77,215.63a.83.83,0,0,0-.68-.33c-.3,0-.56.13-.56.37,0,.4.57.45.85.52.55.13,1,.34,1,1s-.69,1-1.35,1a1.43,1.43,0,0,1-1.28-.59l.48-.4a1.08,1.08,0,0,0,.8.4c.33,0,.68-.14.68-.42s-.53-.45-.8-.51c-.54-.14-1-.31-1-1s.64-1,1.26-1a1.29,1.29,0,0,1,1.14.54Z" transform="translate(-172.56 -85.48)"/><path class="cls-5" d="M236.87,212.82h.63v5.29h-.63Z" transform="translate(-172.56 -85.48)"/><path class="cls-5" d="M239.23,215.2a2,2,0,0,1,1.32-.49c1,0,1.38.53,1.38,1.1v1.7a5.21,5.21,0,0,0,0,.6h-.56c0-.17,0-.33,0-.5h0a1.28,1.28,0,0,1-1.16.59,1,1,0,0,1-1.15-1c0-.85.82-1.15,1.82-1.15h.47v-.14a.72.72,0,0,0-.79-.7,1.4,1.4,0,0,0-.95.38Zm1.78,1.31c-.59,0-1.32.11-1.32.64,0,.38.28.54.71.54a.9.9,0,0,0,.95-1v-.21Z" transform="translate(-172.56 -85.48)"/><path class="cls-5" d="M243.57,214.79h.58v.52h0a1.17,1.17,0,0,1,1.06-.6,1.09,1.09,0,0,1,1,.61,1.21,1.21,0,0,1,1-.61c1,0,1.26.73,1.26,1.47v1.93H248v-1.85c0-.5-.11-1-.71-1s-.85.41-.85,1v1.81h-.63v-1.74c0-.63-.09-1.07-.7-1.07s-.86.34-.86,1.09v1.72h-.63Z" transform="translate(-172.56 -85.48)"/><path class="cls-5" d="M250.61,213.14a.46.46,0,1,1-.47.46A.47.47,0,0,1,250.61,213.14Zm-.32,1.65h.63v3.32h-.63Z" transform="translate(-172.56 -85.48)"/><path class="cls-5" d="M254.4,215.63a.82.82,0,0,0-.68-.33c-.29,0-.55.13-.55.37,0,.4.57.45.85.52.54.13,1,.34,1,1s-.68,1-1.34,1a1.42,1.42,0,0,1-1.28-.59l.47-.4a1.1,1.1,0,0,0,.81.4c.32,0,.67-.14.67-.42s-.52-.45-.8-.51c-.54-.14-1-.31-1-1s.63-1,1.26-1a1.28,1.28,0,0,1,1.13.54Z" transform="translate(-172.56 -85.48)"/><path class="cls-5" d="M258.83,215.67a1.06,1.06,0,0,0-1.86.81,1.07,1.07,0,0,0,1.07,1.13,1,1,0,0,0,.81-.37l.44.44a1.6,1.6,0,0,1-1.26.52,1.75,1.75,0,0,1,0-3.49,1.7,1.7,0,0,1,1.28.53Z" transform="translate(-172.56 -85.48)"/><path class="cls-5" d="M260.55,212.82h.63v2.48h0a1.16,1.16,0,0,1,1.09-.59,1.14,1.14,0,0,1,1.21,1.27v2.13h-.63v-2c0-.62-.36-.85-.76-.85s-.92.33-.92,1.1v1.71h-.63Z" transform="translate(-172.56 -85.48)"/><path class="cls-5" d="M265.63,216.68a1,1,0,0,0,1.12,1,1.16,1.16,0,0,0,.91-.5l.48.37a1.76,1.76,0,0,1-1.47.68,1.65,1.65,0,0,1-1.71-1.75,1.68,1.68,0,0,1,1.71-1.74,1.58,1.58,0,0,1,1.62,1.75v.22Zm2-.5a.91.91,0,0,0-1-1,1,1,0,0,0-1,1Z" transform="translate(-172.56 -85.48)"/><path class="cls-5" d="M272.45,213.15h1.85c.86,0,1.81.18,1.81,1.26a1.12,1.12,0,0,1-.86,1.1h0a1.18,1.18,0,0,1,1.09,1.21c0,1-1,1.38-1.86,1.38h-2Zm1.09,2h.79c.34,0,.69-.14.69-.53s-.39-.52-.74-.52h-.74Zm0,2.06h1c.34,0,.73-.15.73-.58s-.53-.55-.88-.55h-.83Z" transform="translate(-172.56 -85.48)"/><path class="cls-5" d="M278,213.14a.46.46,0,1,1-.46.46A.47.47,0,0,1,278,213.14Zm-.31,1.65h.63v3.32h-.63Z" transform="translate(-172.56 -85.48)"/><path class="cls-5" d="M280.11,212.82h.63v5.29h-.63Z" transform="translate(-172.56 -85.48)"/><path class="cls-5" d="M285.78,218.11h-.63v-.47h0a1.45,1.45,0,0,1-1.16.56,1.75,1.75,0,0,1,0-3.49,1.37,1.37,0,0,1,1.16.56h0v-2.45h.63Zm-.63-1.66a1.09,1.09,0,1,0-1.09,1.16A1.06,1.06,0,0,0,285.15,216.45Z" transform="translate(-172.56 -85.48)"/><path class="cls-5" d="M290.39,218.11h-.63v-.51h0a1.17,1.17,0,0,1-1.09.6,1.15,1.15,0,0,1-1.2-1.27v-2.14h.63v2c0,.63.35.86.75.86s.93-.34.93-1.11v-1.71h.63Z" transform="translate(-172.56 -85.48)"/><path class="cls-5" d="M292.05,214.79h.63v.51h0a1.16,1.16,0,0,1,1.09-.59A1.15,1.15,0,0,1,295,216v2.13h-.64v-2c0-.62-.35-.85-.75-.85s-.93.33-.93,1.1v1.71h-.63Z" transform="translate(-172.56 -85.48)"/><path class="cls-5" d="M300,218.08a1.68,1.68,0,0,1-1.82,1.71,2.25,2.25,0,0,1-1.62-.59l.42-.54a1.55,1.55,0,0,0,1.19.54,1.05,1.05,0,0,0,1.2-1.14v-.5h0a1.29,1.29,0,0,1-1.14.59,1.72,1.72,0,0,1,0-3.44,1.4,1.4,0,0,1,1.15.56h0v-.48H300Zm-2.82-1.63a1.1,1.1,0,1,0,2.19,0,1.1,1.1,0,1,0-2.19,0Z" transform="translate(-172.56 -85.48)"/><text class="cls-6" transform="translate(20.78 99.95)">Islam-<tspan class="cls-7" x="49.96" y="0">F</tspan><tspan class="cls-8" x="59.2" y="0">r</tspan><tspan x="65.65" y="0">agen</tspan></text><line class="cls-9" x1="61.38" y1="107.43" x2="87.82" y2="107.43"/><rect class="cls-10" x="246.92" y="141.67" width="18.76" height="18.76" rx="2.39" transform="translate(-204.3 139.99) rotate(-45)"/><rect class="cls-10" x="228.64" y="141.67" width="18.76" height="18.76" rx="2.39" transform="translate(-209.65 127.07) rotate(-45)"/><path class="cls-5" d="M236.55,152.82a8.15,8.15,0,0,1,1.29-1.47,7.54,7.54,0,0,0,1-1.16,1.66,1.66,0,0,0,.23-1.16,1.45,1.45,0,0,0-.59-1,2.18,2.18,0,0,0-1.33-.38,2.91,2.91,0,0,0-1.53.4,3,3,0,0,0-1.08,1.16l-2.09-1.58a4.64,4.64,0,0,1,1.93-2,6.1,6.1,0,0,1,3-.7,5.16,5.16,0,0,1,3.15.93,3.57,3.57,0,0,1,1.45,2.52,3.92,3.92,0,0,1-.1,1.67,3.43,3.43,0,0,1-.62,1.17,12.45,12.45,0,0,1-1,1.07,9.2,9.2,0,0,0-1.06,1.14,2.09,2.09,0,0,0-.4,1.14h-2.71A3.55,3.55,0,0,1,236.55,152.82Z" transform="translate(-172.56 -85.48)"/><ellipse class="cls-5" cx="64.84" cy="71.62" rx="1.51" ry="1.6"/><path class="cls-5" d="M256.55,152.82a8.15,8.15,0,0,1,1.29-1.47,7.54,7.54,0,0,0,1-1.16,1.66,1.66,0,0,0,.23-1.16,1.45,1.45,0,0,0-.59-1,2.18,2.18,0,0,0-1.33-.38,2.91,2.91,0,0,0-1.53.4,3,3,0,0,0-1.08,1.16l-2.09-1.58a4.64,4.64,0,0,1,1.93-2,6.1,6.1,0,0,1,3-.7,5.16,5.16,0,0,1,3.15.93,3.57,3.57,0,0,1,1.45,2.52,3.92,3.92,0,0,1-.1,1.67,3.43,3.43,0,0,1-.62,1.17,12.45,12.45,0,0,1-1,1.07,9.2,9.2,0,0,0-1.06,1.14,2.09,2.09,0,0,0-.4,1.14h-2.71A3.55,3.55,0,0,1,256.55,152.82Z" transform="translate(-172.56 -85.48)"/><ellipse class="cls-5" cx="84.84" cy="71.62" rx="1.51" ry="1.6"/><rect class="cls-1" width="149.2" height="20.41"/></svg>